<svg width="158" height="59" viewBox="0 0 158 59" fill="none" xmlns="http://www.w3.org/2000/svg">
<g clip-path="url(#clip0_655_1686)">
<path d="M27.9954 37.748L27.1882 40.8099L26.6025 44.2714L27.9203 46.4223L28.7275 53.6365L30.1916 54.219L42.7196 52.5462L41.6572 43.3641C41.6572 43.3641 37.062 43.969 37.0432 43.73C37.0244 43.4873 36.4951 43.3267 36.4951 43.3267L37.0807 41.9078L37.6289 39.0661L34.5879 36.9526L27.9954 37.7555V37.748Z" fill="white"/>
<path d="M25.3749 50.3093V48.5991C25.8142 48.4086 27.7289 48.0277 27.7289 48.0277L28.3371 51.9597C27.2896 51.5901 26.2422 50.6789 25.3749 50.3093ZM29.2081 52.8858L28.2207 44.5999L30.5558 44.4804L31.5357 53.0127C31.2429 53.1546 30.9275 53.2256 30.5896 53.2256C30.1541 53.2256 29.6924 53.1098 29.2081 52.8858ZM31.5357 44.4094L41.278 43.6178L42.1941 51.5677L32.6507 53.0165L31.5357 44.4094ZM30.1954 41.157C30.064 39.9248 30.6835 38.9539 31.3668 38.4573C31.7947 38.1474 32.463 38.0876 33.0149 38.517C33.3791 38.4573 33.8221 38.5805 34.2538 38.9539C34.6255 38.883 34.9934 39.0734 35.3538 39.3871C36.3449 39.7605 37.0207 39.7605 36.8405 41.101C36.7053 41.5304 36.4538 41.9599 35.9695 42.2773C35.4176 42.8187 34.7381 42.8747 34.6255 42.2026L33.5029 42.9942C32.4593 43.1249 32.7596 42.2026 32.7033 41.3512C32.4593 40.175 31.7947 40.0592 31.5319 40.6716C31.4644 41.3475 31.0852 41.6723 30.7435 41.6723C30.4958 41.6723 30.263 41.4968 30.1917 41.157H30.1954ZM6.07419 0C5.1619 0.0186704 4.98921 1.44135 5.06054 3.04328C4.37351 3.17023 3.63391 3.26732 3.2735 4.21204C2.59022 3.95066 1.66667 4.46596 1.46019 4.9962C0.720594 4.8207 -0.105347 5.35094 0.0110358 6.13136C0.22503 7.57645 0.566669 8.3494 1.48647 8.90205C1.11104 9.75342 1.53152 11.542 2.57145 12.3262C2.66906 12.4009 2.15848 12.7145 2.0421 12.8378L1.49022 13.3381L3.71275 21.751C4.20456 24.2118 4.68887 27.4044 5.18443 30.8958C5.30081 31.9451 5.36464 32.9197 5.18443 33.8382L3.32982 45.0181C4.00934 45.6977 7.50833 46.5565 11.1387 47.3668L11.0974 49.204L3.96429 50.9366C2.88306 51.2988 3.34483 52.9007 4.30217 52.7775L17.2995 51.0897L17.7988 49.077C17.9377 48.5804 18.5985 48.6476 19.1015 49.0098L20.6295 53.6139L30.9876 56.3211C31.5395 56.4294 32.035 56.4294 32.2828 56.1904C32.5756 55.8917 32.5756 55.2756 32.2828 54.596L43.3579 52.9418L42.0702 42.9307L37.321 43.4124C37.6289 42.5685 37.7002 41.8292 37.5012 41.1496L37.8241 40.7164C38.2521 37.3445 38.6275 33.532 38.8002 30.0444C39.1757 27.7666 37.8842 26.8443 36.7053 26.4821L27.6575 22.2999C27.4698 22.0199 27.5975 21.0938 28.2695 20.4404C28.8176 19.7496 29.8313 16.5457 28.0555 15.8586C29.3132 12.1395 29.1818 8.8087 25.9343 9.54058C25.0746 7.69967 21.8046 6.65413 19.4845 6.8371C12.6141 7.37854 11.3527 12.4158 12.5841 15.1118C12.7118 15.4852 12.7305 16.3553 12.5428 16.5457C12.1148 16.9042 11.8971 17.1506 11.4691 17.2739C10.3653 15.5524 9.62199 12.9722 8.82608 11.3815C8.7585 10.8998 8.94622 9.82063 9.0626 9.21198C9.2428 8.53237 9.13018 7.78929 8.94622 7.36734C8.6271 5.77289 8.19536 4.23818 7.71106 2.63999C7.28683 1.12022 6.78751 0.00373408 6.10423 0.00373408H6.08546L6.07419 0Z" fill="#070707"/>
<path d="M15.0429 13.9618C15.1856 13.5324 15.4108 13.1253 15.6624 12.7445C16.5071 12.0574 17.502 12.5615 17.6446 12.6362C18.6771 13.3867 19.1764 14.1559 19.3566 15.0932C19.4279 15.9035 19.2327 16.9565 19.1614 17.8377C19.4842 18.7115 20.2313 18.7115 21.046 18.2074C21.3088 18.0879 21.6167 18.2672 21.4252 18.7115L20.7419 19.3911C20.9972 20.1417 21.7406 20.3284 23.629 19.0812L23.9406 18.5211C24.1208 18.3381 24.0607 18.2112 24.2597 18.2112C24.56 18.0917 24.8754 18.3979 25.0143 18.7153C24.8754 19.0177 24.6276 19.1335 24.2597 19.2119C23.8767 19.5853 23.629 20.0259 23.3662 20.3956C22.8105 21.1499 22.3675 22.763 20.0511 22.6323C17.731 22.6323 17.2842 20.7653 16.6047 20.1454L15.4747 19.0849C15.3433 18.719 15.7863 18.3418 16.0228 18.719C16.661 19.2716 17.3405 19.7197 18.1064 19.9027C18.4143 19.9624 18.7259 19.8392 19.0375 19.589C19.1088 19.3986 19.1088 19.1409 18.9173 18.9729C18.6057 18.8459 18.5382 18.5958 18.5382 18.2149C18.602 17.3448 18.602 16.7101 18.6658 15.7803C18.6658 14.8393 18.2303 14.2194 17.5358 13.663C16.6009 13.3531 16.0941 13.663 15.7825 14.2866C15.6549 14.4099 15.5197 14.4659 15.3996 14.4659C15.1668 14.4659 14.9904 14.2605 15.0354 13.9655L15.0429 13.9618ZM14.4047 12.1433L14.3897 12.1582L14.2883 12.2553L14.1044 12.4793L14.0218 12.6026L13.9917 12.6586L13.9429 12.7594H13.9467C13.8265 13.0357 13.7477 13.3569 13.7064 13.7265L14.018 17.7071C14.0818 19.0812 13.7702 19.9587 13.6426 21.0117C13.6426 22.1992 14.018 23.3866 14.8402 23.8309C15.7262 24.3873 17.2805 24.757 18.5382 25.1267C19.1576 25.3283 19.732 25.3283 20.3552 25.2462C22.1685 24.8167 23.9931 24.4433 25.8102 24.1371C26.1894 23.8347 26.4334 23.1364 26.3884 22.4568C26.1931 18.9692 26.7563 17.1507 26.6887 15.1529C26.76 14.2829 26.3208 13.6593 25.8139 13.6593L24.0569 13.3494C23.7191 13.3643 23.1559 13.566 22.8068 13.861C22.1723 14.3352 21.6129 14.5928 21.5566 14.2157C21.673 13.1515 23.7604 12.1246 25.8703 12.7631C25.5436 11.9342 25.202 11.6056 24.6914 11.3741C23.9443 11.4114 23.0921 11.4525 21.9621 11.5421C21.5228 11.5794 19.1576 11.6653 18.159 11.4189L18.0013 11.3965V11.3853C17.6446 11.3404 17.3143 11.3218 17.0139 11.3218C15.6173 11.3218 14.8327 11.7512 14.4047 12.1433Z" fill="white"/>
<path d="M5.66113 1.81489C5.73246 2.63265 5.85636 3.60351 6.10038 4.77975L7.27172 5.15689C7.15534 3.51763 6.83998 2.1883 6.4683 1.20623C6.30687 1.12408 6.17171 1.08301 6.06284 1.08301C5.78878 1.08301 5.66489 1.33319 5.66489 1.81115" fill="white"/>
<path d="M4.04667 4.79845C3.86271 5.59755 4.04667 6.51986 4.79377 7.5094C5.1692 7.75211 5.3419 7.61395 5.45828 7.192C4.84258 6.0195 5.21801 4.74617 5.09412 4.06284C5.02654 4.05537 4.96272 4.05164 4.9064 4.05164C4.47466 4.05164 4.21561 4.24954 4.04667 4.79845Z" fill="white"/>
<path d="M2.14343 5.77687C2.08712 7.56176 2.88678 8.36085 3.81408 7.50575C3.37483 6.63571 3.1233 5.77687 3.1233 5.03379C2.98439 4.98524 2.8605 4.95911 2.75538 4.95911C2.35367 4.95911 2.19974 5.29517 2.14343 5.77314" fill="white"/>
<path d="M0.663836 6.44883C0.611276 7.74456 1.33585 8.71916 1.89899 8.1105C1.53483 7.50558 1.33585 6.51605 1.27954 5.94847C1.18568 5.91113 1.10309 5.89246 1.03926 5.89246C0.802745 5.89246 0.716396 6.11277 0.663836 6.44883Z" fill="white"/>
<path d="M6.23906 5.70202C6.16398 6.25467 6.55067 6.82598 7.04999 7.38236C6.36296 7.57653 5.91244 7.82672 5.85988 8.32708C5.79606 9.0739 5.91244 9.27181 6.68207 9.83192C6.85852 10.1381 6.68207 10.4555 6.42302 10.5153C6.23906 10.2053 5.79606 9.88793 5.54828 9.58174C5.09776 9.19339 4.91005 8.82372 4.84998 8.44657C4.66227 7.94994 4.47831 7.69976 4.04281 8.0769C3.7725 8.25614 2.97284 8.25614 2.58615 8.38683C2.28206 8.51005 2.09059 8.76024 2.15066 9.27181C2.15066 10.2053 2.28206 10.9559 3.28445 11.4562C3.85134 11.6429 4.60595 11.5235 4.98514 10.9559C6.29913 11.7736 8.18753 11.0903 8.55921 8.8872C8.6831 8.38683 8.61177 7.94994 8.43156 7.50559C7.93224 6.18745 7.62439 5.70202 7.17388 5.4369C7.03497 5.32115 6.87729 5.26514 6.73087 5.26514C6.48685 5.26514 6.27285 5.42197 6.23531 5.69829" fill="white"/>
<path d="M23.0434 15.2574C21.9358 15.657 22.315 17.0535 23.2986 17.0311C24.3348 17.0087 24.3724 15.194 23.3887 15.194C23.2836 15.194 23.1672 15.2126 23.0434 15.2574Z" fill="#070707"/>
<path d="M15.933 17.0312C16.6576 17.8191 17.72 17.3188 17.7088 16.5271C17.7012 15.9932 17.2207 15.6571 16.7589 15.6571C16.2559 15.6571 15.7716 16.0567 15.933 17.0312Z" fill="#070707"/>
<path d="M21.6465 25.8997C22.0444 27.0237 22.9943 28.2783 24.0605 28.7339C25.0704 27.8862 25.825 25.84 26.4745 24.6301C24.7663 24.9513 23.3509 25.5748 21.6465 25.8997Z" fill="white"/>
<path d="M16.819 27.9235C17.6074 27.4456 18.133 26.6987 18.5986 25.8959C17.3784 25.6756 16.3122 25.3059 15.1709 25.0072C15.5989 26.0976 16.4061 26.8145 16.819 27.9198" fill="white"/>
<path d="M17.3711 20.276C19.3158 23.3081 21.5684 22.6322 22.8636 20.1976C20.2206 21.2245 20.2131 21.1162 17.3711 20.276Z" fill="white"/>
</g>
<path d="M59.9924 28.6987C64.7092 28.6987 67.8173 26.0541 67.8173 22.646C67.8173 19.4288 65.4453 18.1747 62.5825 17.2749L57.784 15.7481C56.9661 15.5027 56.5026 15.0393 56.5026 14.3849C56.5026 13.5124 57.4841 12.8036 59.0382 12.8036C60.8649 12.8036 62.5007 13.7578 63.2369 15.0938L67.4083 13.8669C66.3996 11.195 63.1824 8.85023 58.9836 8.85023C54.8667 8.85023 51.8949 11.4131 51.9222 14.5485C51.8949 17.0568 53.7761 18.8017 56.2845 19.5924L61.1921 21.1192C62.6371 21.5827 63.2369 22.1553 63.2369 22.9459C63.2369 23.9002 62.0918 24.7454 60.2651 24.7454C57.7567 24.7454 56.0663 23.3549 55.3302 21.5827L51.0224 22.9187C52.113 25.8632 55.1666 28.6987 59.9924 28.6987ZM78.4749 14.0305C76.6755 14.0305 75.285 14.7939 74.358 15.8572V8.414H69.9957V28.317H74.358V21.5282C74.358 19.4016 75.3668 18.0656 77.0572 18.0656C78.7748 18.0656 79.5382 19.2652 79.5382 21.0919V28.317H83.9005V20.2195C83.9005 16.5388 82.1829 14.0305 78.4749 14.0305ZM91.1256 16.2934V14.4122H86.7633V28.317H91.1256V22.5097C91.1256 19.0744 92.5434 17.8202 95.4879 18.311V14.2213C93.4431 13.9487 91.9435 14.7939 91.1256 16.2934ZM99.561 12.8036C100.951 12.8036 102.069 11.713 102.069 10.3225C102.069 8.98655 100.951 7.89598 99.561 7.89598C98.1705 7.89598 97.0526 8.98655 97.0526 10.3225C97.0526 11.713 98.1705 12.8036 99.561 12.8036ZM97.3253 28.317H101.688V14.4122H97.3253V28.317ZM109.085 16.2934V14.4122H104.723V28.317H109.085V22.5097C109.085 19.0744 110.503 17.8202 113.447 18.311V14.2213C111.402 13.9487 109.903 14.7939 109.085 16.2934ZM120.618 28.6987C122.335 28.6987 123.671 28.0444 124.626 27.0356V28.317H128.988V14.4122H124.626V15.6936C123.671 14.6575 122.335 14.0305 120.618 14.0305C116.855 14.0305 113.856 17.1386 113.856 21.3646C113.856 25.5906 116.855 28.6987 120.618 28.6987ZM121.408 24.8272C119.527 24.8272 118.164 23.4367 118.164 21.3373C118.164 19.2652 119.527 17.902 121.408 17.902C123.29 17.902 124.735 19.2652 124.735 21.3373C124.735 23.4367 123.29 24.8272 121.408 24.8272ZM148.796 14.0305C146.67 14.0305 145.17 14.8757 144.216 15.8844C143.398 14.7121 142.062 14.0305 140.181 14.0305C138.518 14.0305 137.209 14.7666 136.337 15.7754V14.4122H131.974V28.317H136.337V21.4191C136.337 19.2925 137.045 18.0656 138.763 18.0656C140.399 18.0656 140.972 19.2652 140.972 21.0919V28.317H145.334V21.4191C145.334 19.2925 146.043 18.0656 147.76 18.0656C149.396 18.0656 149.969 19.2652 149.969 21.0919V28.317H154.331V20.1104C154.331 16.1571 152.095 14.0305 148.796 14.0305Z" fill="black"/>
<path d="M66.1814 39.9316V35.8147H51.9767V54.8998H56.5026V47.7565H64.791V43.7214H56.5026V39.9316H66.1814ZM70.3721 39.3863C71.7625 39.3863 72.8804 38.2958 72.8804 36.9053C72.8804 35.5693 71.7625 34.4787 70.3721 34.4787C68.9816 34.4787 67.8637 35.5693 67.8637 36.9053C67.8637 38.2958 68.9816 39.3863 70.3721 39.3863ZM68.1364 54.8998H72.4987V40.9949H68.1364V54.8998ZM83.7404 40.6132C81.9409 40.6132 80.5504 41.3766 79.6234 42.4399V40.9949H75.2611V54.8998H79.6234V48.1109C79.6234 45.9843 80.6322 44.6484 82.3226 44.6484C84.0403 44.6484 84.8037 45.848 84.8037 47.6747V54.8998H89.166V46.8023C89.166 43.1216 87.4483 40.6132 83.7404 40.6132ZM97.6997 55.2815C99.4174 55.2815 100.753 54.6271 101.708 53.6184V54.8998H106.07V40.9949H101.708V42.2764C100.753 41.2403 99.4174 40.6132 97.6997 40.6132C93.9372 40.6132 90.9382 43.7214 90.9382 47.9474C90.9382 52.1733 93.9372 55.2815 97.6997 55.2815ZM98.4904 51.4099C96.6092 51.4099 95.2459 50.0195 95.2459 47.9201C95.2459 45.848 96.6092 44.4848 98.4904 44.4848C100.372 44.4848 101.817 45.848 101.817 47.9201C101.817 50.0195 100.372 51.4099 98.4904 51.4099ZM117.263 40.6132C115.463 40.6132 114.073 41.3766 113.146 42.4399V40.9949H108.784V54.8998H113.146V48.1109C113.146 45.9843 114.155 44.6484 115.845 44.6484C117.563 44.6484 118.326 45.848 118.326 47.6747V54.8998H122.688V46.8023C122.688 43.1216 120.971 40.6132 117.263 40.6132ZM131.904 55.2815C135.83 55.2815 138.284 52.8004 138.802 50.6193L134.767 49.4742C134.521 50.4829 133.431 51.4372 131.877 51.4372C129.941 51.4372 128.714 49.7741 128.714 47.9201C128.714 46.0388 129.941 44.4575 131.877 44.4575C133.431 44.4575 134.521 45.4663 134.767 46.4751L138.802 45.33C138.284 43.1488 135.83 40.6132 131.849 40.6132C127.596 40.6132 124.461 43.7759 124.461 47.9474C124.461 52.1188 127.596 55.2815 131.904 55.2815ZM147.391 55.2815C151.099 55.2815 153.444 53.1003 154.18 51.3827L150.254 50.2376C149.791 51.0828 148.946 51.6553 147.473 51.6553C145.238 51.6553 144.283 50.5647 144.011 49.256H154.289C154.371 48.7926 154.398 48.3018 154.398 47.811C154.398 43.8032 151.726 40.6132 147.119 40.6132C142.675 40.6132 139.757 43.8032 139.757 47.9746C139.757 52.3097 142.866 55.2815 147.391 55.2815ZM144.011 46.6387C144.202 45.4663 145.292 44.2667 147.092 44.2667C148.891 44.2667 150.009 45.3845 150.145 46.6387H144.011Z" fill="black"/>
<defs>
<clipPath id="clip0_655_1686">
<rect width="43.3506" height="56.3883" fill="white"/>
</clipPath>
</defs>
</svg>
